<?xml version="1.0" encoding="utf-8"?>
<!-- Generator: Adobe Illustrator 17.0.0, SVG Export Plug-In . SVG Version: 6.00 Build 0)  -->
<!DOCTYPE svg PUBLIC "-//W3C//DTD SVG 1.1//EN" "http://www.w3.org/Graphics/SVG/1.1/DTD/svg11.dtd">
<svg version="1.1" id="Layer_1" xmlns="http://www.w3.org/2000/svg" xmlns:xlink="http://www.w3.org/1999/xlink" x="0px" y="0px"
	 width="960px" height="560px" viewBox="0 0 960 560" enable-background="new 0 0 960 560" xml:space="preserve">
<rect fill="#607D8B" width="960" height="560"/>
<path fill="#ECEFF1" stroke="#37474F" stroke-width="9" stroke-miterlimit="10" d="M634.477,360.5H300.523
	C216,360.5,207,243,279,216.5c26.341-9.695,80.874,18.013,80.874,18.013s-0.243-89.451,107.626-89.451
	c108.879,0.068,108.393,89.843,108.393,89.843s53.363-26.529,79.107-17.639C729.333,242.932,720.333,360.5,634.477,360.5z"/>
<g>
	<polygon fill="#B0BEC5" points="503.75,352 417,352 417,261.875 453.5,210 543.5,210 507.417,264 433,264 433,333.5 
		503.625,333.871 	"/>
	<polygon fill="#455A64" points="543,297.631 507,351.5 507,267 525,239.875 525,270.018 543,243.762 	"/>
</g>
</svg>
